<svg xmlns="http://www.w3.org/2000/svg" version="1.1" xmlns:xlink="http://www.w3.org/1999/xlink" xmlns:svgjs="http://svgjs.dev/svgjs" width="1440" height="560" preserveAspectRatio="none" viewBox="0 0 1440 560"><g mask="url(&quot;#SvgjsMask1003&quot;)" fill="none"><path d="M324.33 427.82L376.64 427.82L376.64 455.39L324.33 455.39z" fill="rgba(3, 123, 11, 0.46)"></path><path d="M765.14 554.82L811.52 554.82L811.52 579.11L765.14 579.11z" fill="rgba(3, 123, 11, 0.46)"></path><path d="M613 269.87 a18.17 18.17 0 1 0 36.34 0 a18.17 18.17 0 1 0 -36.34 0z" fill="rgba(3, 123, 11, 0.46)"></path><path d="M1215.47 89.39 a28.12 28.12 0 1 0 56.24 0 a28.12 28.12 0 1 0 -56.24 0z" fill="rgba(211, 183, 20, 0.49)"></path><path d="M327.18 266.41a52.04 52.04 0 1 0-103.11 14.22z" fill="rgba(211, 183, 20, 0.49)"></path><path d="M263.36 0.58L287.63 0.58L287.63 24.85L263.36 24.85z" fill="rgba(231, 54, 53, 0.46)"></path><path d="M558.07 50.4L572.6 50.4L572.6 81.85L558.07 81.85z" stroke="rgba(3, 123, 11, 0.46)"></path><path d="M495.09 159.38a45.87 45.87 0 1 0-78.56 47.38z" fill="rgba(3, 123, 11, 0.46)"></path><path d="M380.14 340.22a28.14 28.14 0 1 0 24.68-50.59z" stroke="rgba(231, 54, 53, 0.46)"></path><path d="M1391.03 343.58 a40.01 40.01 0 1 0 80.02 0 a40.01 40.01 0 1 0 -80.02 0z" fill="rgba(231, 54, 53, 0.46)"></path><path d="M152.06 274.54a26.27 26.27 0 1 0 33.35 40.6z" stroke="rgba(2, 19, 247, 0.37)"></path><path d="M672.39-1.86a43.83 43.83 0 1 0-72.68 49.01z" stroke="rgba(211, 183, 20, 0.49)"></path><path d="M536.44 6.44a17.01 17.01 0 1 0 3.36 33.85z" fill="rgba(3, 123, 11, 0.46)"></path><path d="M1092.05 191.81L1132.24 191.81L1132.24 200.24L1092.05 200.24z" stroke="rgba(3, 123, 11, 0.46)"></path><path d="M847.12 357.34 a47.91 47.91 0 1 0 95.82 0 a47.91 47.91 0 1 0 -95.82 0z" fill="rgba(2, 19, 247, 0.37)"></path><path d="M887.22 411.09L938.47 411.09L938.47 462.34L887.22 462.34z" stroke="rgba(3, 123, 11, 0.46)"></path><path d="M985.39 74.39 a16.45 16.45 0 1 0 32.9 0 a16.45 16.45 0 1 0 -32.9 0z" fill="rgba(211, 183, 20, 0.49)"></path><path d="M981.35 222.32a46.78 46.78 0 1 0-24.92 90.18z" fill="rgba(231, 54, 53, 0.46)"></path><path d="M1063.87 447a45.27 45.27 0 1 0 88.62-18.56z" fill="rgba(3, 123, 11, 0.46)"></path><path d="M39.02-4.08a34.96 34.96 0 1 0-1.97 69.89z" fill="rgba(3, 123, 11, 0.46)"></path><path d="M769.85 41.39L785.88 41.39L785.88 56.16L769.85 56.16z" fill="rgba(3, 123, 11, 0.46)"></path><path d="M1297.68 272.04a8.41 8.41 0 1 0-16.63 2.49z" stroke="rgba(3, 123, 11, 0.46)"></path><path d="M1151.41 351.07a54.9 54.9 0 1 0 41.03-101.84z" stroke="rgba(231, 54, 53, 0.46)"></path><path d="M1189.72 507.21L1220.35 507.21L1220.35 518.38L1189.72 518.38z" fill="rgba(3, 123, 11, 0.46)"></path><path d="M699.36 207.98 a53.86 53.86 0 1 0 107.72 0 a53.86 53.86 0 1 0 -107.72 0z" fill="rgba(3, 123, 11, 0.46)"></path><path d="M1056.62 52.24L1111.97 52.24L1111.97 107.59L1056.62 107.59z" stroke="rgba(3, 123, 11, 0.46)"></path><path d="M68.06 461.01 a14.73 14.73 0 1 0 29.46 0 a14.73 14.73 0 1 0 -29.46 0z" fill="rgba(211, 183, 20, 0.49)"></path><path d="M343.89 551.66 a52.69 52.69 0 1 0 105.38 0 a52.69 52.69 0 1 0 -105.38 0z" fill="rgba(3, 123, 11, 0.46)"></path><path d="M697.54 370.77 a28.81 28.81 0 1 0 57.62 0 a28.81 28.81 0 1 0 -57.62 0z" stroke="rgba(231, 54, 53, 0.46)"></path><path d="M784.89 42.49L817.16 42.49L817.16 74.76L784.89 74.76z" fill="rgba(211, 183, 20, 0.49)"></path><path d="M1060.22 96.17 a1.23 1.23 0 1 0 2.46 0 a1.23 1.23 0 1 0 -2.46 0z" fill="rgba(3, 123, 11, 0.46)"></path><path d="M175.37 382.61a26.65 26.65 0 1 0-2.46-53.24z" stroke="rgba(231, 54, 53, 0.46)"></path><path d="M914.48 325.19a21.13 21.13 0 1 0 42.04-4.34z" fill="rgba(3, 123, 11, 0.46)"></path></g><defs><mask id="SvgjsMask1003"><rect width="1440" height="560" fill="#ffffff"></rect></mask></defs></svg>