<?xml version="1.0" standalone="no"?><svg xmlns="http://www.w3.org/2000/svg" viewBox="0 0 1440 320"><path fill="#532ae698" fill-opacity="1" d="M0,64L18.5,90.7C36.9,117,74,171,111,165.3C147.7,160,185,96,222,64C258.5,32,295,32,332,37.3C369.2,43,406,53,443,96C480,139,517,213,554,234.7C590.8,256,628,224,665,181.3C701.5,139,738,85,775,101.3C812.3,117,849,203,886,202.7C923.1,203,960,117,997,112C1033.8,107,1071,181,1108,192C1144.6,203,1182,149,1218,106.7C1255.4,64,1292,32,1329,16C1366.2,0,1403,0,1422,0L1440,0L1440,320L1421.5,320C1403.1,320,1366,320,1329,320C1292.3,320,1255,320,1218,320C1181.5,320,1145,320,1108,320C1070.8,320,1034,320,997,320C960,320,923,320,886,320C849.2,320,812,320,775,320C738.5,320,702,320,665,320C627.7,320,591,320,554,320C516.9,320,480,320,443,320C406.2,320,369,320,332,320C295.4,320,258,320,222,320C184.6,320,148,320,111,320C73.8,320,37,320,18,320L0,320Z"></path></svg>