<?xml version="1.0" standalone="no"?><svg xmlns="http://www.w3.org/2000/svg" viewBox="0 0 1440 320"><path fill="#532ae698" fill-opacity="1" d="M0,224L30,224C60,224,120,224,180,197.3C240,171,300,117,360,101.3C420,85,480,107,540,128C600,149,660,171,720,202.7C780,235,840,277,900,261.3C960,245,1020,171,1080,149.3C1140,128,1200,160,1260,170.7C1320,181,1380,171,1410,165.3L1440,160L1440,320L1410,320C1380,320,1320,320,1260,320C1200,320,1140,320,1080,320C1020,320,960,320,900,320C840,320,780,320,720,320C660,320,600,320,540,320C480,320,420,320,360,320C300,320,240,320,180,320C120,320,60,320,30,320L0,320Z"></path></svg>