<svg xmlns="http://www.w3.org/2000/svg" version="1.1" xmlns:xlink="http://www.w3.org/1999/xlink" xmlns:svgjs="http://svgjs.dev/svgjs" width="1440" height="461" preserveAspectRatio="none" viewBox="0 0 1440 461"><g mask="url(&quot;#SvgjsMask1099&quot;)" fill="none"><path d="M 0,202 C 57.6,170.4 172.8,56.6 288,44 C 403.2,31.4 460.8,135.6 576,139 C 691.2,142.4 748.8,47 864,61 C 979.2,75 1036.8,217.4 1152,209 C 1267.2,200.6 1382.4,57 1440,19L1440 461L0 461z" fill="rgba(83, 42, 230, 0.596078431372549)"></path><path d="M 0,387 C 96,368 288,283 480,292 C 672,301 768,437.6 960,432 C 1152,426.4 1344,297.6 1440,264L1440 461L0 461z" fill="rgba(83, 42, 230, 0.596078431372549)"></path></g><defs><mask id="SvgjsMask1099"><rect width="1440" height="461" fill="#ffffff"></rect></mask></defs></svg>